<mxfile host="app.diagrams.net" modified="2023-05-24T13:38:19.436Z" agent="Mozilla/5.0 (Macintosh; Intel Mac OS X 10_15_7) AppleWebKit/537.36 (KHTML, like Gecko) Chrome/113.0.0.0 Safari/537.36" version="21.3.2" etag="aXgTyhEhP73eXAd7d79O" type="github">
  <diagram name="PÃ¡gina-1" id="8ymJEzLFKF9hCWBLkr37">
    <mxGraphModel>
      <root>
        <mxCell id="0" />
        <mxCell id="1" parent="0" />
      </root>
    </mxGraphModel>
  </diagram>
</mxfile>
